<svg width="595" height="512" viewBox="0 0 595 512" fill="none" xmlns="http://www.w3.org/2000/svg">
<path d="M4.23438 36.5601C10.9172 28.171 23.129 26.793 31.5102 33.4821L587.691 477.382C596.072 484.071 597.448 496.294 590.766 504.684C584.083 513.073 571.871 514.451 563.49 507.762L7.30947 63.8619C-1.0717 57.1727 -2.44847 44.9493 4.23438 36.5601Z" fill="white"/>
<path d="M319.657 0H257.548C240.371 0 226.493 13.8905 226.493 31.0841V93.2522C226.493 110.446 240.371 124.336 257.548 124.336H319.657C336.834 124.336 350.712 110.446 350.712 93.2522V31.0841C350.712 13.8905 336.834 0 319.657 0Z" fill="white"/>
<path d="M27.6324 80.0821C38.0449 69.8058 52.0568 63.1741 67.5841 62.2734L267.034 221.458C258.717 224.541 251.076 229.399 244.685 235.797C241.424 239.061 238.562 242.652 236.133 246.491L27.6324 80.0821Z" fill="white"/>
<path d="M83.0185 62.1681L278.74 218.377C281.981 217.855 285.278 217.588 288.602 217.588C305.075 217.588 320.873 224.139 332.52 235.797C343.212 246.499 349.604 260.702 350.58 275.714L566.719 448.22C567.62 444.013 568.094 439.649 568.094 435.177V124.336C568.094 90.0468 540.241 62.1681 505.984 62.1681H381.766V108.794C381.766 134.536 360.901 155.42 335.184 155.42H242.021C216.304 155.42 195.439 134.536 195.439 108.794V62.1681H83.0185Z" fill="white"/>
<path d="M563.676 458.215C558.725 470.597 549.907 481.024 538.723 487.993L332.685 323.551C342.321 313.833 348.43 301.26 350.187 287.824L563.676 458.215Z" fill="white"/>
<path fill-rule="evenodd" clip-rule="evenodd" d="M325.191 329.993L529.221 492.834C522.041 495.743 514.196 497.345 505.984 497.345H71.2204C36.9636 497.345 9.11131 469.466 9.11131 435.177V124.336C9.11131 110.524 13.6309 97.7533 21.2666 87.4248L231.528 255.239C228.237 262.912 226.493 271.245 226.493 279.756C226.493 296.244 233.037 312.058 244.685 323.716C256.332 335.374 272.13 341.925 288.602 341.925C301.834 341.925 314.631 337.699 325.191 329.993ZM190.296 435.177C184.569 435.177 179.911 430.514 179.911 424.783C179.911 396.225 203.008 373.009 231.637 373.009H345.568C374.099 373.009 397.293 396.127 397.293 424.783C397.293 430.514 392.635 435.177 386.909 435.177H190.296Z" fill="white"/>
</svg>
