<svg width="40" height="10" viewBox="0 0 40 10" fill="none" xmlns="http://www.w3.org/2000/svg">
<path d="M39.1935 4.16664H2.7462L5.4077 1.42723C5.55957 1.27044 5.64489 1.05779 5.64489 0.836054C5.64489 0.614319 5.55957 0.401665 5.4077 0.244875C5.25583 0.0880841 5.04985 0 4.83508 0C4.6203 0 4.41432 0.0880841 4.26245 0.244875L0.229868 4.40811C0.156442 4.4873 0.0988853 4.58068 0.0604996 4.68288C-0.0201665 4.8856 -0.0201665 5.11298 0.0604996 5.3157C0.0988853 5.4179 0.156442 5.51128 0.229868 5.59047L4.26245 9.7537C4.33743 9.83175 4.42663 9.89369 4.52491 9.93596C4.62319 9.97824 4.72861 10 4.83508 10C4.94155 10 5.04696 9.97824 5.14525 9.93596C5.24353 9.89369 5.33273 9.83175 5.4077 9.7537C5.4833 9.6763 5.5433 9.58421 5.58424 9.48274C5.62519 9.38128 5.64627 9.27244 5.64627 9.16253C5.64627 9.05261 5.62519 8.94377 5.58424 8.84231C5.5433 8.74084 5.4833 8.64875 5.4077 8.57135L2.7462 5.83194H39.1935C39.4074 5.83194 39.6125 5.74421 39.7638 5.58806C39.915 5.43191 40 5.22012 40 4.99929C40 4.77846 39.915 4.56667 39.7638 4.41052C39.6125 4.25437 39.4074 4.16664 39.1935 4.16664Z" fill="#753422"/>
</svg>
