<svg width="40" height="10" viewBox="0 0 40 10" fill="none" xmlns="http://www.w3.org/2000/svg">
<path d="M39.1935 4.1664H2.7462L5.4077 1.42699C5.55957 1.2702 5.64489 1.05755 5.64489 0.83581C5.64489 0.614075 5.55957 0.401421 5.4077 0.24463C5.25583 0.0878399 5.04985 -0.000244141 4.83508 -0.000244141C4.6203 -0.000244141 4.41432 0.0878399 4.26245 0.24463L0.229868 4.40787C0.156442 4.48705 0.0988853 4.58043 0.0604996 4.68264C-0.0201665 4.88536 -0.0201665 5.11273 0.0604996 5.31545C0.0988853 5.41766 0.156442 5.51104 0.229868 5.59023L4.26245 9.75346C4.33743 9.8315 4.42663 9.89345 4.52491 9.93572C4.62319 9.97799 4.72861 9.99976 4.83508 9.99976C4.94155 9.99976 5.04696 9.97799 5.14525 9.93572C5.24353 9.89345 5.33273 9.8315 5.4077 9.75346C5.4833 9.67605 5.5433 9.58396 5.58424 9.4825C5.62519 9.38103 5.64627 9.2722 5.64627 9.16228C5.64627 9.05236 5.62519 8.94353 5.58424 8.84206C5.5433 8.7406 5.4833 8.64851 5.4077 8.5711L2.7462 5.83169H39.1935C39.4074 5.83169 39.6125 5.74397 39.7638 5.58782C39.915 5.43166 40 5.21988 40 4.99905C40 4.77821 39.915 4.56643 39.7638 4.41028C39.6125 4.25412 39.4074 4.1664 39.1935 4.1664Z" fill="#043636"/>
</svg>
