<svg width="40" height="10" viewBox="0 0 40 10" fill="none" xmlns="http://www.w3.org/2000/svg">
<path d="M0.806515 5.83311L37.2538 5.83311L34.5923 8.57252C34.4404 8.72931 34.3551 8.94197 34.3551 9.1637C34.3551 9.38544 34.4404 9.59809 34.5923 9.75488C34.7442 9.91167 34.9501 9.99976 35.1649 9.99976C35.3797 9.99976 35.5857 9.91167 35.7375 9.75488L39.7701 5.59165C39.8436 5.51246 39.9011 5.41908 39.9395 5.31687C40.0202 5.11415 40.0202 4.88678 39.9395 4.68406C39.9011 4.58185 39.8436 4.48847 39.7701 4.40929L35.7375 0.246052C35.6626 0.168009 35.5734 0.106064 35.4751 0.0637913C35.3768 0.0215187 35.2714 -0.000244141 35.1649 -0.000244141C35.0585 -0.000244141 34.953 0.0215187 34.8548 0.0637913C34.7565 0.106064 34.6673 0.168009 34.5923 0.246052C34.5167 0.323457 34.4567 0.415547 34.4158 0.517014C34.3748 0.61848 34.3537 0.727311 34.3537 0.837231C34.3537 0.94715 34.3748 1.05598 34.4158 1.15745C34.4567 1.25891 34.5167 1.351 34.5923 1.42841L37.2538 4.16782L0.806515 4.16782C0.592613 4.16782 0.387474 4.25554 0.236221 4.4117C0.0849686 4.56785 0 4.77963 0 5.00047C0 5.2213 0.0849686 5.43308 0.236221 5.58924C0.387474 5.74539 0.592613 5.83311 0.806515 5.83311Z" fill="#043636"/>
</svg>
