<svg width="40" height="10" viewBox="0 0 40 10" fill="none" xmlns="http://www.w3.org/2000/svg">
<path d="M39.1935 5.83336L2.7462 5.83336L5.4077 8.57277C5.55957 8.72956 5.64489 8.94221 5.64489 9.16395C5.64489 9.38568 5.55957 9.59833 5.4077 9.75513C5.25583 9.91192 5.04985 10 4.83508 10C4.6203 10 4.41432 9.91192 4.26245 9.75513L0.229868 5.59189C0.156442 5.5127 0.0988853 5.41932 0.0604996 5.31712C-0.0201665 5.1144 -0.0201665 4.88702 0.0604996 4.6843C0.0988853 4.5821 0.156442 4.48872 0.229868 4.40953L4.26245 0.246296C4.33743 0.168253 4.42663 0.106308 4.52491 0.0640354C4.62319 0.0217628 4.72861 0 4.83508 0C4.94155 0 5.04696 0.0217628 5.14525 0.0640354C5.24353 0.106308 5.33273 0.168253 5.4077 0.246296C5.4833 0.323701 5.5433 0.415792 5.58424 0.517258C5.62519 0.618724 5.64627 0.727555 5.64627 0.837475C5.64627 0.947394 5.62519 1.05623 5.58424 1.15769C5.5433 1.25916 5.4833 1.35125 5.4077 1.42865L2.7462 4.16806L39.1935 4.16806C39.4074 4.16806 39.6125 4.25579 39.7638 4.41194C39.915 4.56809 40 4.77988 40 5.00071C40 5.22154 39.915 5.43333 39.7638 5.58948C39.6125 5.74563 39.4074 5.83336 39.1935 5.83336Z" fill="white"/>
</svg>
