<svg width="40" height="10" viewBox="0 0 40 10" fill="none" xmlns="http://www.w3.org/2000/svg">
<path d="M0.806515 5.83336L37.2538 5.83336L34.5923 8.57277C34.4404 8.72956 34.3551 8.94221 34.3551 9.16395C34.3551 9.38568 34.4404 9.59833 34.5923 9.75513C34.7442 9.91192 34.9501 10 35.1649 10C35.3797 10 35.5857 9.91192 35.7375 9.75513L39.7701 5.59189C39.8436 5.5127 39.9011 5.41932 39.9395 5.31712C40.0202 5.1144 40.0202 4.88702 39.9395 4.6843C39.9011 4.5821 39.8436 4.48872 39.7701 4.40953L35.7375 0.246296C35.6626 0.168253 35.5734 0.106308 35.4751 0.0640354C35.3768 0.0217628 35.2714 0 35.1649 0C35.0585 0 34.953 0.0217628 34.8548 0.0640354C34.7565 0.106308 34.6673 0.168253 34.5923 0.246296C34.5167 0.323701 34.4567 0.415792 34.4158 0.517258C34.3748 0.618724 34.3537 0.727555 34.3537 0.837475C34.3537 0.947394 34.3748 1.05623 34.4158 1.15769C34.4567 1.25916 34.5167 1.35125 34.5923 1.42865L37.2538 4.16806L0.806515 4.16806C0.592613 4.16806 0.387474 4.25579 0.236221 4.41194C0.0849686 4.56809 0 4.77988 0 5.00071C0 5.22154 0.0849686 5.43333 0.236221 5.58948C0.387474 5.74563 0.592613 5.83336 0.806515 5.83336Z" fill="#753422"/>
</svg>
