<svg width="35" height="30" viewBox="0 0 35 30" fill="none" xmlns="http://www.w3.org/2000/svg">
<g clip-path="url(#clip0_928_80)">
<path d="M3.8378e-05 21.6008C0.04865 19.9726 0.727035 18.4247 1.89544 17.2762C4.32665 14.8407 6.7637 12.4103 9.23865 10.0188C11.9564 7.3937 16.0665 7.42902 18.809 10.0533C19.3193 10.537 19.823 11.0221 20.2983 11.5353C21.8627 13.2233 22.4416 15.2011 22.0195 17.4557C21.8941 18.126 21.3051 18.5455 20.6774 18.4302C20.0103 18.3076 19.616 17.7361 19.7384 17.0441C20.0257 15.4181 19.5717 14.0306 18.3767 12.8817C17.9334 12.4542 17.507 12.0088 17.0564 11.5893C15.3324 9.98343 12.646 9.9546 10.9554 11.5893C8.45352 14.0068 5.97832 16.4509 3.52985 18.9217C1.92168 20.5435 1.92605 23.2053 3.49049 24.8753C4.03432 25.457 4.60148 26.0206 5.19124 26.5554C6.8971 28.1022 9.55576 28.0691 11.2419 26.4567C12.6824 25.08 14.085 23.6615 15.4986 22.2604C15.8412 21.9216 16.2334 21.7558 16.7189 21.9C16.9202 21.9521 17.1029 22.0587 17.2463 22.2078C17.3898 22.3569 17.4884 22.5426 17.531 22.744C17.5827 22.9311 17.582 23.1285 17.5288 23.3152C17.4756 23.5018 17.3721 23.6706 17.2292 23.8035C15.7289 25.2919 14.2636 26.8178 12.7094 28.2478C10.1302 30.6206 6.10541 30.5665 3.54006 28.1844C2.96488 27.6503 2.40865 27.0953 1.86336 26.5317C0.653222 25.2847 -0.00579362 23.6248 3.8378e-05 21.6008Z" fill="#7638F9"/>
<path d="M26.7965 0C28.6051 0.0345971 30.1769 0.611215 31.4737 1.83581C32.167 2.49027 32.8683 3.14761 33.4763 3.87559C35.6225 6.44515 35.492 10.2789 33.1446 12.6647C30.7068 15.1437 28.2343 17.589 25.727 20.0007C23.0217 22.5955 18.9685 22.5609 16.2377 19.9928C15.7011 19.4883 15.1682 18.9765 14.671 18.4352C13.1241 16.7522 12.5475 14.7845 12.9725 12.5429C13.1 11.8704 13.6854 11.4524 14.3124 11.5655C14.9794 11.6866 15.3767 12.2596 15.2535 12.9508C14.9619 14.5769 15.4153 15.9639 16.6138 17.1119C17.0512 17.5306 17.466 17.9681 17.9071 18.3804C19.6567 20.0209 22.3394 20.0526 24.0627 18.3862C26.5457 15.9836 29.0022 13.557 31.4322 11.1064C33.0943 9.42915 33.0644 6.74499 31.4264 5.04325C30.9569 4.55697 30.4767 4.08077 29.9859 3.61467C28.1349 1.85599 25.4325 1.87689 23.6137 3.66369C22.2271 5.02691 20.8442 6.3935 19.4649 7.76344C19.1311 8.09356 18.7403 8.23699 18.2716 8.10077C18.0703 8.0489 17.8876 7.94258 17.744 7.79375C17.6004 7.64491 17.5016 7.45945 17.4587 7.25818C17.4065 7.07122 17.4068 6.87372 17.4596 6.68692C17.5124 6.50012 17.6157 6.33106 17.7583 6.19792C19.2674 4.7016 20.7567 3.18437 22.3051 1.72913C23.5546 0.55139 25.103 0.0360386 26.7965 0Z" fill="#7638F9"/>
</g>
<defs>
<clipPath id="clip0_928_80">
<rect width="35" height="30" fill="white"/>
</clipPath>
</defs>
</svg>
