<svg width="30" height="30" viewBox="0 0 30 30" fill="none" xmlns="http://www.w3.org/2000/svg">
<path d="M11.9273 20.2155L16.0705 7.78587C16.2239 7.32538 15.9751 6.82762 15.5146 6.67411C15.0542 6.52065 14.5564 6.7695 14.4028 7.22999L10.2597 19.6597C10.1062 20.1201 10.3551 20.6179 10.8156 20.7714C10.9077 20.8021 11.0015 20.8167 11.0936 20.8167C11.4616 20.8168 11.8045 20.5839 11.9273 20.2155Z" fill="#7638F9"/>
<path d="M18.1367 16.3596C19.5906 16.3596 20.7734 15.1767 20.7734 13.7228C20.7734 12.269 19.5906 11.0861 18.1367 11.0861C16.6828 11.0861 15.5 12.269 15.5 13.7228C15.5 15.1767 16.6828 16.3596 18.1367 16.3596ZM18.1367 12.8439C18.6213 12.8439 19.0156 13.2382 19.0156 13.7228C19.0156 14.2075 18.6213 14.6017 18.1367 14.6017C17.6521 14.6017 17.2578 14.2075 17.2578 13.7228C17.2578 13.2382 17.6521 12.8439 18.1367 12.8439Z" fill="#7638F9"/>
<path d="M8.19336 11.0861C6.73947 11.0861 5.55664 12.269 5.55664 13.7228C5.55664 15.1767 6.73947 16.3596 8.19336 16.3596C9.64725 16.3596 10.8301 15.1767 10.8301 13.7228C10.8301 12.269 9.6473 11.0861 8.19336 11.0861ZM8.19336 14.6017C7.70873 14.6017 7.31445 14.2075 7.31445 13.7228C7.31445 13.2382 7.70873 12.8439 8.19336 12.8439C8.67799 12.8439 9.07227 13.2382 9.07227 13.7228C9.07227 14.2075 8.67805 14.6017 8.19336 14.6017Z" fill="#7638F9"/>
<path d="M29.8247 10.8987L26.7598 6.81216L26.8794 5.97527C26.9185 5.7014 26.8264 5.42507 26.6308 5.22949L24.7663 3.36503L26.6307 1.50058C26.974 1.1574 26.974 0.600874 26.6307 0.257632C26.2876 -0.0855518 25.731 -0.0855518 25.3878 0.257632L23.5234 2.12208L21.6589 0.257632C21.4634 0.0619873 21.187 -0.0297705 20.9132 0.00901854L12.2124 1.25197C12.0241 1.27886 11.8497 1.36611 11.7152 1.50058L0.942895 12.2729C-0.313647 13.5294 -0.313647 15.574 0.942895 16.8305L10.0579 25.9455C10.2444 26.132 10.4485 26.2901 10.6645 26.4212V26.7776C10.6645 28.5545 12.1102 30.0002 13.8872 30.0002H26.7778C28.5548 30.0002 30.0005 28.5545 30.0005 26.7776V11.426C30.0005 11.2359 29.9388 11.0508 29.8247 10.8987ZM2.18584 15.5875C1.61467 15.0163 1.61467 14.087 2.18584 13.5159L12.751 2.95072L20.7267 1.81136L22.2804 3.36509L21.0374 4.60804L20.4159 3.98654C20.0728 3.64335 19.5162 3.64335 19.173 3.98654C18.8298 4.32972 18.8298 4.88624 19.173 5.22949L21.6589 7.71544C21.8306 7.88707 22.0555 7.97291 22.2804 7.97291C22.5053 7.97291 22.7303 7.88707 22.9018 7.71544C23.2451 7.37226 23.2451 6.81574 22.9018 6.47249L22.2803 5.85099L23.5233 4.60804L25.077 6.16177L23.9376 14.1374L13.3725 24.7026C13.0958 24.9793 12.728 25.1316 12.3367 25.1316C11.9454 25.1316 11.5775 24.9792 11.3009 24.7026L2.18584 15.5875ZM28.2427 26.7776C28.2427 27.5853 27.5855 28.2424 26.7778 28.2424H13.8872C13.1159 28.2424 12.4823 27.6431 12.4267 26.8857C13.2217 26.8637 14.0101 26.5509 14.6154 25.9455L25.3877 15.1732C25.5222 15.0387 25.6095 14.8643 25.6364 14.676L26.4082 9.2731L28.2427 11.719V26.7776Z" fill="#7638F9"/>
</svg>
