<svg width="30" height="30" viewBox="0 0 30 30" fill="none" xmlns="http://www.w3.org/2000/svg">
<g clip-path="url(#clip0_921_48)">
<path d="M21.9557 20.974C22.0749 21.0567 22.1889 21.1464 22.2973 21.2427C23.3782 22.3174 24.4561 23.395 25.5311 24.4756C25.8127 24.7576 25.8105 24.9197 25.5311 25.1906C25.4002 25.3238 25.2693 25.4571 25.1363 25.5858C24.8923 25.8234 24.7193 25.8257 24.4709 25.5858C23.6739 24.7939 22.8777 23.9983 22.0822 23.1989L20.8867 22.0043C20.3548 22.3763 19.7478 22.627 19.1086 22.7387C18.4694 22.8503 17.8135 22.8202 17.1871 22.6505C16.1547 22.3835 15.2563 21.7457 14.6631 20.8586C14.0814 19.9919 13.8234 18.9477 13.9344 17.9095C14.0453 16.8713 14.5182 15.9054 15.2698 15.1815C16.0215 14.4576 17.0039 14.0221 18.0445 13.9513C19.0851 13.8806 20.1173 14.1792 20.9599 14.7946C22.7409 16.0891 23.4484 18.7181 21.9557 20.974ZM15.1843 18.3828C15.1909 19.0069 15.3819 19.615 15.7333 20.1304C16.0846 20.6459 16.5806 21.0457 17.1586 21.2793C17.7367 21.513 18.3709 21.57 18.9812 21.4433C19.5916 21.3166 20.1508 21.0117 20.5884 20.5672C21.0259 20.1227 21.3222 19.5584 21.4398 18.9456C21.5574 18.3327 21.491 17.6987 21.2492 17.1236C21.0073 16.5484 20.6007 16.0578 20.0807 15.7137C19.5607 15.3695 18.9505 15.1873 18.3272 15.1899C17.9109 15.1913 17.4991 15.2752 17.1154 15.4368C16.7317 15.5983 16.3837 15.8343 16.0915 16.1311C15.7994 16.4279 15.5688 16.7797 15.4131 17.1662C15.2574 17.5526 15.1796 17.9661 15.1843 18.3828Z" fill="#7638F9"/>
<path d="M9.57036 16.078H8.5124V18.1963H5.30525V17.1438H7.42782V16.078H4.2251V15.0122H5.27419V13.9375H6.35433V14.9833H7.42561V12.8184H5.2387L5.30303 11.7815H8.49022V12.8206H9.5748V11.7837H10.6505V12.8406H11.7484V13.9064H12.8019V14.9855H11.7528V16.0958H10.6838V13.9242H8.51683V15.0011H9.55705V16.0891L9.57036 16.078Z" fill="#7638F9"/>
<path d="M10.6459 4.24542V10.6691H4.21387V4.24542H10.6459ZM9.57466 5.3201C9.53218 5.31107 9.48923 5.3044 9.44601 5.30012C8.12633 5.30012 6.80665 5.30012 5.48919 5.30012C5.26739 5.30012 5.26739 5.41781 5.26739 5.56879C5.26739 6.81889 5.26739 8.06897 5.26739 9.31684C5.26739 9.56553 5.34059 9.62993 5.58013 9.62771C6.82883 9.61661 8.07753 9.62771 9.32624 9.62771C9.40165 9.62771 9.47928 9.62771 9.57244 9.61439L9.57466 5.3201Z" fill="#7638F9"/>
<path d="M10.6508 25.7501H4.21875V19.3265H10.6508V25.7501ZM5.29668 20.3923V24.6799H9.57289V20.3923H5.29668Z" fill="#7638F9"/>
<path d="M25.7261 4.24542V10.6713H19.3052V4.24542H25.7261ZM24.6482 9.59884V5.31344H20.3742V9.59884H24.6482Z" fill="#7638F9"/>
<path d="M1.35317 8.61197H1.4973L4.41838 0.0132961L4.41771 -0.136702C4.4176 -0.136702 4.41749 -0.136701 4.41739 -0.136701C3.20477 -0.131154 2.04373 0.354962 1.18825 1.21526C0.332707 2.07563 -0.147571 3.24019 -0.147559 4.45412V4.46139V4.46867V4.47594V4.48321V4.49049V4.49776V4.50503V4.5123V4.51958V4.52685V4.53412V4.54139V4.54867V4.55594V4.56321V4.57049V4.57776V4.58503V4.5923V4.59958V4.60685V4.61412V4.62139V4.62867V4.63594V4.64321V4.65049V4.65776V4.66503V4.6723V4.67958V4.68685V4.69412V4.70139V4.70867V4.71594V4.72321V4.73048V4.73776V4.74503V4.7523V4.75957V4.76685V4.77412V4.78139V4.78867V4.79594V4.80321V4.81048V4.81776V4.82503V4.8323V4.83957V4.84685V4.85412V4.86139V4.86866V4.87594V4.88321V4.89048V4.89775V4.90503V4.9123V4.91957V4.92684V4.93412V4.94139V4.94866V4.95593V4.96321V4.97048V4.97775V4.98502V4.9923V4.99957V5.00684V5.01411V5.02139V5.02866V5.03593V5.0432V5.05048V5.05775V5.06502V5.07229V5.07957V5.08684V5.09411V5.10138V5.10865V5.11593V5.1232V5.13047V5.13774V5.14502V5.15229V5.15956V5.16683V5.17411V5.18138V5.18865V5.19592V5.20319V5.21047V5.21774V5.22501V5.23228V5.23956V5.24683V5.2541V5.26137V5.26864V5.27592V5.28319V5.29046V5.29773V5.305V5.31228V5.31955V5.32682V5.33409V5.34136V5.34864V5.35591V5.36318V5.37045V5.37772V5.385V5.39227V5.39954V5.40681V5.41408V5.42136V5.42863V5.4359V5.44317V5.45044V5.45771V5.46499V5.47226V5.47953V5.4868V5.49407V5.50134V5.50862V5.51589V5.52316V5.53043V5.5377V5.54497V5.55225V5.55952V5.56679V5.57406V5.58133V5.5886V5.59588V5.60315V5.61042V5.61769V5.62496V5.63223V5.6395V5.64678V5.65405V5.66132V5.66859V5.67586V5.68313V5.6904V5.69767V5.70495V5.71222V5.71949V5.72676V5.73403V5.7413V5.74857V5.75584V5.76312V5.77039V5.77766V5.78493V5.7922V5.79947V5.80674V5.81401V5.82128V5.82856V5.83583V5.8431V5.85037V5.85764V5.86491V5.87218V5.87945V5.88672V5.89399V5.90126V5.90853V5.9158V5.92308V5.93035V5.93762V5.94489V5.95216V5.95943V5.9667V5.97397V5.98124V5.98851V5.99578V6.00305V6.01032V6.01759V6.02486V6.03213V6.0394V6.04667V6.05395V6.06122V6.06849V6.07576V6.08303V6.0903V6.09757V6.10484V6.11211V6.11938V6.12665V6.13392V6.14119V6.14846V6.15573V6.163V6.17027V6.17754V6.18481V6.19208V6.19935V6.20662V6.21389V6.22116V6.22843V6.2357V6.24297V6.25024V6.2575V6.26477V6.27204V6.27931V6.28658V6.29385V6.30112V6.30839V6.31566V6.32293V6.3302V6.33747V6.34474V6.35201V6.35928V6.36655V6.37382V6.38109V6.38836V6.39562V6.40289V6.41016V6.41743V6.4247V6.43197V6.43924V6.44651V6.45378V6.46105V6.46831V6.47558V6.48285V6.49012V6.49739V6.50466V6.51193V6.5192V6.52647V6.53373V6.541V6.54827V6.55554V6.56281V6.57008V6.57735V6.58461V6.59188V6.59915V6.60642V6.61369V6.62096V6.62822V6.63549V6.64276V6.65003V6.6573V6.66457V6.67183V6.6791V6.68637V6.69364V6.70091V6.70817V6.71544V6.72271V6.72998V6.73725V6.74451V6.75178V6.75905V6.76632V6.77358V6.78085V6.78812V6.79539V6.80265V6.80992V6.81719V6.82446V6.83172V6.83899V6.84626V6.85353V6.86079V6.86806V6.87533V6.8826V6.88986V6.89713V6.9044V6.91166V6.91893V6.9262V6.93347V6.94073V6.948V6.95527V6.96253V6.9698V6.97707V6.98433V6.9916V6.99887V7.00613V7.0134V7.02067V7.02793V7.0352V7.04247V7.04973V7.057V7.06426V7.07153V7.0788V7.08606V7.09333V7.1006V7.10786V7.11513V7.12239V7.12966V7.13693V7.14419V7.15146V7.15872V7.16599V7.17326V7.18052V7.18779V7.19505V7.20232V7.20958V7.21685V7.22411V7.23138V7.23865V7.24591V7.25318V7.26044V7.26771V7.27497V7.28224V7.2895V7.29677V7.30403V7.3113V7.31856V7.32583V7.33309V7.34036V7.34762V7.35489V7.36215V7.36942V7.37668V7.38395V7.39121V7.39848V7.40574V7.41301V7.42027V7.42753V7.4348V7.44206V7.44933V7.45659V7.46386V7.47112V7.47838V7.48565V7.49291V7.50018V7.50744V7.5147V7.52197V7.52923V7.5365V7.54376V7.55102V7.55829V7.56555V7.57281V7.58008V7.58734V7.5946V7.60187V7.60913V7.61639V7.62366V7.63092V7.63819V7.64545V7.65271V7.65997V7.66724V7.6745V7.68176V7.68903V7.69629V7.70355V7.71081V7.71808V7.72534V7.7326V7.73987V7.74713V7.75439V7.76165V7.76892V7.77618V7.78344V7.7907V7.79796V7.80523V7.81249V7.81975V7.82701V7.83428V7.84154V7.8488V7.85606V7.86332V7.87058V7.87785V7.88511V7.89237V7.89963V7.90689V7.91415V7.92142V7.92868V7.93594V7.9432V7.95046V7.95772V7.96498V7.97224V7.97951V7.98677V7.99403V8.00129V8.00855V8.01581V8.02307V8.03033V8.03759V8.04485V8.05211V8.05937V8.06664V8.0739V8.08116V8.08842V8.09568V8.10294V8.1102V8.11746V8.12472V8.13198V8.13924V8.1465V8.15376V8.16102V8.16828V8.17554V8.46197V8.61197H0.00244141H1.35317Z" fill="#7638F9" stroke="#7638F9" stroke-width="0.3"/>
<path d="M8.44589 30.1411H8.59589V29.9911V28.6322V28.4822H8.44589H8.10654C7.69523 28.4822 7.2859 28.4847 6.8776 28.4872C6.06451 28.4921 5.25549 28.497 4.44299 28.4822L4.443 28.4822L4.44002 28.4822C4.05107 28.4829 3.66591 28.4057 3.30716 28.2552C2.94841 28.1048 2.62329 27.8841 2.3509 27.6061C2.07852 27.3281 1.86435 26.9984 1.721 26.6364C1.57765 26.2743 1.50801 25.8873 1.51616 25.4979L1.51619 25.4979V25.4948V25.4876V25.4804V25.4732V25.466V25.4588V25.4516V25.4444V25.4372V25.43V25.4228V25.4156V25.4084V25.4012V25.3941V25.3869V25.3797V25.3725V25.3653V25.3581V25.3509V25.3437V25.3365V25.3293V25.3221V25.315V25.3078V25.3006V25.2934V25.2862V25.279V25.2718V25.2646V25.2574V25.2503V25.2431V25.2359V25.2287V25.2215V25.2143V25.2071V25.1999V25.1928V25.1856V25.1784V25.1712V25.164V25.1568V25.1496V25.1425V25.1353V25.1281V25.1209V25.1137V25.1065V25.0993V25.0922V25.085V25.0778V25.0706V25.0634V25.0562V25.0491V25.0419V25.0347V25.0275V25.0203V25.0131V25.006V24.9988V24.9916V24.9844V24.9772V24.9701V24.9629V24.9557V24.9485V24.9413V24.9341V24.927V24.9198V24.9126V24.9054V24.8982V24.8911V24.8839V24.8767V24.8695V24.8623V24.8552V24.848V24.8408V24.8336V24.8265V24.8193V24.8121V24.8049V24.7977V24.7906V24.7834V24.7762V24.769V24.7619V24.7547V24.7475V24.7403V24.7331V24.726V24.7188V24.7116V24.7044V24.6973V24.6901V24.6829V24.6757V24.6686V24.6614V24.6542V24.647V24.6399V24.6327V24.6255V24.6183V24.6112V24.604V24.5968V24.5896V24.5825V24.5753V24.5681V24.561V24.5538V24.5466V24.5394V24.5323V24.5251V24.5179V24.5107V24.5036V24.4964V24.4892V24.4821V24.4749V24.4677V24.4605V24.4534V24.4462V24.439V24.4319V24.4247V24.4175V24.4103V24.4032V24.396V24.3888V24.3817V24.3745V24.3673V24.3601V24.353V24.3458V24.3386V24.3315V24.3243V24.3171V24.31V24.3028V24.2956V24.2885V24.2813V24.2741V24.2669V24.2598V24.2526V24.2454V24.2383V24.2311V24.2239V24.2168V24.2096V24.2024V24.1953V24.1881V24.1809V24.1738V24.1666V24.1594V24.1523V24.1451V24.1379V24.1308V24.1236V24.1164V24.1093V24.1021V24.0949V24.0878V24.0806V24.0734V24.0663V24.0591V24.0519V24.0448V24.0376V24.0304V24.0233V24.0161V24.0089V24.0018V23.9946V23.9874V23.9803V23.9731V23.9659V23.9588V23.9516V23.9445V23.9373V23.9301V23.923V23.9158V23.9086V23.9015V23.8943V23.8871V23.88V23.8728V23.8656V23.8585V23.8513V23.8442V23.837V23.8298V23.8227V23.8155V23.8083V23.8012V23.794V23.7868V23.7797V23.7725V23.7654V23.7582V23.751V23.7439V23.7367V23.7295V23.7224V23.7152V23.7081V23.7009V23.6937V23.6866V23.6794V23.6722V23.6651V23.6579V23.6508V23.6436V23.6364V23.6293V23.6221V23.615V23.6078V23.6006V23.5935V23.5863V23.5791V23.572V23.5648V23.5577V23.5505V23.5433V23.5362V23.529V23.5218V23.5147V23.5075V23.5004V23.4932V23.486V23.4789V23.4717V23.4646V23.4574V23.4502V23.4431V23.4359V23.4288V23.4216V23.4144V23.4073V23.4001V23.393V23.3858V23.3786V23.3715V23.3643V23.3571V23.35V23.3428V23.3357V23.3285V23.3213V23.3142V23.307V23.2999V23.2927V23.2855V23.2784V23.2712V23.2641V23.2569V23.2497V23.2426V23.2354V23.2283V23.2211V23.2139V23.2068V23.1996V23.1925V23.1853V23.1781V23.171V23.1638V23.1567V23.1495V23.1423V23.1352V23.128V23.1209V23.1137V23.1065V23.0994V23.0922V23.0851V23.0779V23.0707V23.0636V23.0564V23.0493V23.0421V23.0349V23.0278V23.0206V23.0135V23.0063V22.9991V22.992V22.9848V22.9777V22.9705V22.9633V22.9562V22.949V22.9419V22.9347V22.9275V22.9204V22.9132V22.9061V22.8989V22.8917V22.8846V22.8774V22.8703V22.8631V22.8559V22.8488V22.8416V22.8345V22.8273V22.8201V22.813V22.8058V22.7987V22.7915V22.7843V22.7772V22.77V22.7629V22.7557V22.7485V22.7414V22.7342V22.7271V22.7199V22.7127V22.7056V22.6984V22.6913V22.6841V22.6769V22.6698V22.6626V22.6554V22.6483V22.6411V22.634V22.6268V22.6196V22.6125V22.6053V22.5982V22.591V22.5838V22.5767V22.5695V22.5624V22.5552V22.548V22.5409V22.5337V22.5265V22.5194V22.5122V22.5051V22.4979V22.4907V22.4836V22.4764V22.4693V22.4621V22.4549V22.4478V22.4406V22.4334V22.4263V22.4191V22.412V22.4048V22.3976V22.3905V22.3833V22.3761V22.369V22.3618V22.3547V22.3475V22.3403V22.3332V22.326V22.3188V22.3117V22.3045V22.2974V22.2902V22.283V22.2759V22.2687V22.2615V22.2544V22.2472V22.24V22.2329V22.2257V22.2186V22.2114V22.2042V22.1971V22.1899V22.1827V22.1756V22.1684V22.1612V22.1541V22.1469V22.1397V22.1326V22.1254V22.1183V22.1111V22.1039V22.0968V22.0896V22.0824V22.0753V22.0681V22.0609V22.0538V22.0466V22.0394V22.0323V22.0251V22.0179V22.0108V22.0036V21.9964V21.9893V21.9821V21.9749V21.9678V21.9606V21.9534V21.9463V21.9391V21.9319V21.9248V21.9176V21.9104V21.9033V21.8961V21.8889V21.8818V21.8746V21.8674V21.8603V21.8531V21.8459V21.8388V21.8316V21.8244V21.5424V21.3924H1.36619H0.00215503H-0.147845V21.5424V25.4712C-0.158514 26.0868 -0.0454002 26.6982 0.184785 27.2691C0.415135 27.8405 0.758009 28.3595 1.19299 28.7954C1.62796 29.2313 2.14615 29.5751 2.71666 29.8063C3.2868 30.0373 3.89754 30.1512 4.51254 30.1411H8.44589Z" fill="#7638F9" stroke="#7638F9" stroke-width="0.3"/>
<path d="M21.393 -0.129237L21.5444 -0.127788C22.0352 -0.123089 22.5296 -0.130388 23.0251 -0.137705C24.1521 -0.154344 25.2849 -0.171069 26.3947 -0.0469435L21.393 -0.129237ZM21.393 -0.129237V0.0222054M21.393 -0.129237V0.0222054M21.393 0.0222054V1.19779V1.34779V1.35445H21.543M21.393 0.0222054L21.543 1.35445M21.543 1.35445V1.49779L25.422 1.49779C25.422 1.49779 25.4221 1.49779 25.4221 1.49779C26.3208 1.49888 27.082 1.8153 27.6196 2.34831C28.1572 2.8812 28.4795 3.6386 28.486 4.53684V4.54331V4.55033V4.55734V4.56435V4.57136V4.57838V4.58539V4.5924V4.59941V4.60643V4.61344V4.62045V4.62746V4.63448V4.64149V4.6485V4.65551V4.66253V4.66954V4.67655V4.68356V4.69058V4.69759V4.7046V4.71161V4.71863V4.72564V4.73265V4.73966V4.74668V4.75369V4.7607V4.76771V4.77473V4.78174V4.78875V4.79576V4.80278V4.80979V4.8168V4.82381V4.83083V4.83784V4.84485V4.85186V4.85888V4.86589V4.8729V4.87991V4.88693V4.89394V4.90095V4.90797V4.91498V4.92199V4.929V4.93602V4.94303V4.95004V4.95705V4.96407V4.97108V4.97809V4.9851V4.99212V4.99913V5.00614V5.01315V5.02017V5.02718V5.03419V5.0412V5.04822V5.05523V5.06224V5.06925V5.07627V5.08328V5.09029V5.0973V5.10432V5.11133V5.11834V5.12535V5.13237V5.13938V5.14639V5.1534V5.16042V5.16743V5.17444V5.18145V5.18847V5.19548V5.20249V5.2095V5.21652V5.22353V5.23054V5.23755V5.24457V5.25158V5.25859V5.2656V5.27262V5.27963V5.28664V5.29365V5.30067V5.30768V5.31469V5.3217V5.32872V5.33573V5.34274V5.34975V5.35677V5.36378V5.37079V5.3778V5.38482V5.39183V5.39884V5.40585V5.41287V5.41988V5.42689V5.4339V5.44092V5.44793V5.45494V5.46195V5.46897V5.47598V5.48299V5.49V5.49702V5.50403V5.51104V5.51805V5.52507V5.53208V5.53909V5.5461V5.55312V5.56013V5.56714V5.57415V5.58117V5.58818V5.59519V5.6022V5.60922V5.61623V5.62324V5.63025V5.63727V5.64428V5.65129V5.6583V5.66532V5.67233V5.67934V5.68636V5.69337V5.70038V5.70739V5.71441V5.72142V5.72843V5.73544V5.74246V5.74947V5.75648V5.76349V5.77051V5.77752V5.78453V5.79154V5.79856V5.80557V5.81258V5.81959V5.82661V5.83362V5.84063V5.84764V5.85466V5.86167V5.86868V5.87569V5.88271V5.88972V5.89673V5.90374V5.91076V5.91777V5.92478V5.93179V5.93881V5.94582V5.95283V5.95984V5.96686V5.97387V5.98088V5.98789V5.99491V6.00192V6.00893V6.01594V6.02296V6.02997V6.03698V6.04399V6.05101V6.05802V6.06503V6.07204V6.07906V6.08607V6.09308V6.10009V6.10711V6.11412V6.12113V6.12814V6.13516V6.14217V6.14918V6.15619V6.16321V6.17022V6.17723V6.18424V6.19126V6.19827V6.20528V6.21229V6.21931V6.22632V6.23333V6.24034V6.24736V6.25437V6.26138V6.26839V6.27541V6.28242V6.28943V6.29644V6.30346V6.31047V6.31748V6.32449V6.33151V6.33852V6.34553V6.35254V6.35956V6.36657V6.37358V6.38059V6.38761V6.39462V6.40163V6.40865V6.41566V6.42267V6.42968V6.4367V6.44371V6.45072V6.45773V6.46475V6.47176V6.47877V6.48578V6.4928V6.49981V6.50682V6.51383V6.52085V6.52786V6.53487V6.54188V6.5489V6.55591V6.56292V6.56993V6.57695V6.58396V6.59097V6.59798V6.605V6.61201V6.61902V6.62603V6.63305V6.64006V6.64707V6.65408V6.6611V6.66811V6.67512V6.68213V6.68915V6.69616V6.70317V6.71018V6.7172V6.72421V6.73122V6.73823V6.74525V6.75226V6.75927V6.76628V6.7733V6.78031V6.78732V6.79433V6.80135V6.80836V6.81537V6.82238V6.8294V6.83641V6.84342V6.85043V6.85745V6.86446V6.87147V6.87848V6.8855V6.89251V6.89952V6.90653V6.91355V6.92056V6.92757V6.93458V6.9416V6.94861V6.95562V6.96263V6.96965V6.97666V6.98367V6.99068V6.9977V7.00471V7.01172V7.01873V7.02575V7.03276V7.03977V7.04678V7.0538V7.06081V7.06782V7.07483V7.08185V7.08886V7.09587V7.10288V7.1099V7.11691V7.12392V7.13094V7.13795V7.14496V7.15197V7.15899V7.166V7.17301V7.18002V7.18704V7.19405V7.20106V7.20807V7.21509V7.2221V7.22911V7.23612V7.24314V7.25015V7.25716V7.26417V7.27119V7.2782V7.28521V7.29222V7.29924V7.30625V7.31326V7.32027V7.32729V7.3343V7.34131V7.34832V7.35534V7.36235V7.36936V7.37637V7.38339V7.3904V7.39741V7.40442V7.41144V7.41845V7.42546V7.43247V7.43949V7.4465V7.45351V7.46052V7.46754V7.47455V7.48156V7.48857V7.49559V7.5026V7.50961V7.51662V7.52364V7.53065V7.53766V7.54467V7.55169V7.5587V7.56571V7.57272V7.57974V7.58675V7.59376V7.60077V7.60779V7.6148V7.62181V7.62882V7.63584V7.64285V7.64986V7.65687V7.66389V7.6709V7.67791V7.68492V7.69194V7.69895V7.70596V7.71297V7.71999V7.727V7.73401V7.74102V7.74804V7.75505V7.76206V7.76907V7.77609V7.7831V7.79011V7.79712V7.80414V7.81115V7.81816V7.82517V7.83219V7.8392V7.84621V7.85322V7.86024V7.86725V7.87426V7.88127V7.88829V7.8953V7.90231V7.90932V7.91634V7.92335V7.93036V7.93738V7.94439V7.9514V7.95841V7.96543V7.97244V7.97945V7.98646V7.99347V8.00049V8.0075V8.01451V8.02153V8.02854V8.03555V8.04256V8.04957V8.05659V8.0636V8.07061V8.07763V8.08464V8.09165V8.09866V8.10568V8.11269V8.1197V8.12671V8.44868V8.59867H28.636H29.9668H30.0931L30.1146 8.47415C30.1234 8.42286 30.1293 8.37107 30.1321 8.31909L30.1323 8.3191V8.311C30.1323 7.85673 30.1364 7.40073 30.1406 6.94377C30.149 6.02627 30.1574 5.10489 30.1322 4.1858L30.1322 4.18575C30.0749 2.12302 28.4731 0.184304 26.3948 -0.0469333L21.543 1.35445Z" fill="#7638F9" stroke="#7638F9" stroke-width="0.3"/>
<path d="M28.4904 21.3858H28.6362H29.9936H30.1436V21.5358V22.6327V22.6384V22.6441V22.6498V22.6555V22.6612V22.6669V22.6726V22.6783V22.6841V22.6898V22.6955V22.7012V22.7069V22.7126V22.7183V22.724V22.7297V22.7355V22.7412V22.7469V22.7526V22.7583V22.764V22.7697V22.7754V22.7811V22.7869V22.7926V22.7983V22.804V22.8097V22.8154V22.8211V22.8268V22.8326V22.8383V22.844V22.8497V22.8554V22.8611V22.8668V22.8725V22.8782V22.884V22.8897V22.8954V22.9011V22.9068V22.9125V22.9182V22.9239V22.9296V22.9354V22.9411V22.9468V22.9525V22.9582V22.9639V22.9696V22.9753V22.9811V22.9868V22.9925V22.9982V23.0039V23.0096V23.0153V23.021V23.0267V23.0325V23.0382V23.0439V23.0496V23.0553V23.061V23.0667V23.0724V23.0781V23.0839V23.0896V23.0953V23.101V23.1067V23.1124V23.1181V23.1238V23.1296V23.1353V23.141V23.1467V23.1524V23.1581V23.1638V23.1695V23.1752V23.181V23.1867V23.1924V23.1981V23.2038V23.2095V23.2152V23.2209V23.2266V23.2324V23.2381V23.2438V23.2495V23.2552V23.2609V23.2666V23.2723V23.2781V23.2838V23.2895V23.2952V23.3009V23.3066V23.3123V23.318V23.3237V23.3295V23.3352V23.3409V23.3466V23.3523V23.358V23.3637V23.3694V23.3751V23.3809V23.3866V23.3923V23.398V23.4037V23.4094V23.4151V23.4208V23.4265V23.4323V23.438V23.4437V23.4494V23.4551V23.4608V23.4665V23.4722V23.478V23.4837V23.4894V23.4951V23.5008V23.5065V23.5122V23.5179V23.5236V23.5294V23.5351V23.5408V23.5465V23.5522V23.5579V23.5636V23.5693V23.575V23.5808V23.5865V23.5922V23.5979V23.6036V23.6093V23.615V23.6207V23.6265V23.6322V23.6379V23.6436V23.6493V23.655V23.6607V23.6664V23.6721V23.6779V23.6836V23.6893V23.695V23.7007V23.7064V23.7121V23.7178V23.7235V23.7293V23.735V23.7407V23.7464V23.7521V23.7578V23.7635V23.7692V23.775V23.7807V23.7864V23.7921V23.7978V23.8035V23.8092V23.8149V23.8206V23.8264V23.8321V23.8378V23.8435V23.8492V23.8549V23.8606V23.8663V23.872V23.8778V23.8835V23.8892V23.8949V23.9006V23.9063V23.912V23.9177V23.9234V23.9292V23.9349V23.9406V23.9463V23.952V23.9577V23.9634V23.9691V23.9749V23.9806V23.9863V23.992V23.9977V24.0034V24.0091V24.0148V24.0205V24.0263V24.032V24.0377V24.0434V24.0491V24.0548V24.0605V24.0662V24.0719V24.0777V24.0834V24.0891V24.0948V24.1005V24.1062V24.1119V24.1176V24.1234V24.1291V24.1348V24.1405V24.1462V24.1519V24.1576V24.1633V24.169V24.1748V24.1805V24.1862V24.1919V24.1976V24.2033V24.209V24.2147V24.2204V24.2262V24.2319V24.2376V24.2433V24.249V24.2547V24.2604V24.2661V24.2719V24.2776V24.2833V24.289V24.2947V24.3004V24.3061V24.3118V24.3175V24.3233V24.329V24.3347V24.3404V24.3461V24.3518V24.3575V24.3632V24.3689V24.3747V24.3804V24.3861V24.3918V24.3975V24.4032V24.4089V24.4146V24.4204V24.4261V24.4318V24.4375V24.4432V24.4489V24.4546V24.4603V24.466V24.4718V24.4775V24.4832V24.4889V24.4946V24.5003V24.506V24.5117V24.5174V24.5232V24.5289V24.5346V24.5403V24.546V24.5517V24.5574V24.5631V24.5688V24.5746V24.5803V24.586V24.5917V24.5974V24.6031V24.6088V24.6145V24.6203V24.626V24.6317V24.6374V24.6431V24.6488V24.6545V24.6602V24.6659V24.6717V24.6774V24.6831V24.6888V24.6945V24.7002V24.7059V24.7116V24.7173V24.7231V24.7288V24.7345V24.7402V24.7459V24.7516V24.7573V24.763V24.7688V24.7745V24.7802V24.7859V24.7916V24.7973V24.803V24.8087V24.8144V24.8202V24.8259V24.8316V24.8373V24.843V24.8487V24.8544V24.8601V24.8658V24.8716V24.8773V24.883V24.8887V24.8944V24.9001V24.9058V24.9115V24.9173V24.923V24.9287V24.9344V24.9401V24.9458V24.9515V24.9572V24.9629V24.9687V24.9744V24.9801V24.9858V24.9915V24.9972V25.0029V25.0086V25.0143V25.0201V25.0258V25.0315V25.0372V25.0429V25.0486V25.0543V25.06V25.0657V25.0715V25.0772V25.0829V25.0886V25.0943V25.1V25.1057V25.1114V25.1172V25.1229V25.1286V25.1343V25.14V25.1457V25.1514V25.1571V25.1628V25.1686V25.1743V25.18V25.1857V25.1914V25.1971V25.2028V25.2085V25.2142V25.22V25.2257V25.2314V25.2371V25.2428V25.2485V25.2542V25.2599V25.2657V25.2714V25.2771V25.2828V25.2885V25.2942V25.2999V25.3056V25.3113V25.3171V25.3228V25.3285V25.3342V25.3399V25.3456V25.3513V25.357V25.3627V25.3685V25.3742V25.3799V25.3856V25.3913V25.397V25.4027V25.4084V25.4142V25.4199V25.4256V25.4313V25.437V25.4427V25.4484V25.4541V25.4598V25.4656V25.4713V25.477V25.4827V25.4884V25.4941V25.4998V25.5055V25.5112V25.517V25.5227V25.5284V25.5341V25.5398V25.5455V25.5512V25.5565V25.5569H29.9936C29.9969 26.7106 29.5488 27.8197 28.7455 28.6468C27.9421 29.4738 26.8472 29.9532 25.6952 29.9822L28.4904 21.3858ZM28.4904 21.3858L28.4863 21.5315L28.4774 21.8468L28.4773 21.8468V21.8511V21.8582V21.8654V21.8726V21.8798V21.887V21.8942V21.9013V21.9085V21.9157V21.9229V21.9301V21.9372V21.9444V21.9516V21.9588V21.966V21.9731V21.9803V21.9875V21.9947V22.0019V22.009V22.0162V22.0234V22.0306V22.0378V22.0449V22.0521V22.0593V22.0665V22.0737V22.0808V22.088V22.0952V22.1024V22.1095V22.1167V22.1239V22.1311V22.1383V22.1454V22.1526V22.1598V22.167V22.1741V22.1813V22.1885V22.1957V22.2029V22.21V22.2172V22.2244V22.2316V22.2387V22.2459V22.2531V22.2603V22.2674V22.2746V22.2818V22.289V22.2961V22.3033V22.3105V22.3177V22.3248V22.332V22.3392V22.3464V22.3535V22.3607V22.3679V22.3751V22.3822V22.3894V22.3966V22.4038V22.4109V22.4181V22.4253V22.4325V22.4396V22.4468V22.454V22.4612V22.4683V22.4755V22.4827V22.4899V22.497V22.5042V22.5114V22.5185V22.5257V22.5329V22.5401V22.5472V22.5544V22.5616V22.5688V22.5759V22.5831V22.5903V22.5974V22.6046V22.6118V22.619V22.6261V22.6333V22.6405V22.6477V22.6548V22.662V22.6692V22.6763V22.6835V22.6907V22.6978V22.705V22.7122V22.7194V22.7265V22.7337V22.7409V22.748V22.7552V22.7624V22.7696V22.7767V22.7839V22.7911V22.7982V22.8054V22.8126V22.8197V22.8269V22.8341V22.8413V22.8484V22.8556V22.8628V22.8699V22.8771V22.8843V22.8914V22.8986V22.9058V22.9129V22.9201V22.9273V22.9345V22.9416V22.9488V22.956V22.9631V22.9703V22.9775V22.9846V22.9918V22.999V23.0061V23.0133V23.0205V23.0276V23.0348V23.042V23.0491V23.0563V23.0635V23.0706V23.0778V23.085V23.0921V23.0993V23.1065V23.1136V23.1208V23.128V23.1351V23.1423V23.1495V23.1566V23.1638V23.171V23.1781V23.1853V23.1925V23.1996V23.2068V23.214V23.2211V23.2283V23.2355V23.2426V23.2498V23.257V23.2641V23.2713V23.2785V23.2856V23.2928V23.3V23.3071V23.3143V23.3215V23.3286V23.3358V23.3429V23.3501V23.3573V23.3644V23.3716V23.3788V23.3859V23.3931V23.4003V23.4074V23.4146V23.4218V23.4289V23.4361V23.4433V23.4504V23.4576V23.4647V23.4719V23.4791V23.4862V23.4934V23.5006V23.5077V23.5149V23.5221V23.5292V23.5364V23.5435V23.5507V23.5579V23.565V23.5722V23.5794V23.5865V23.5937V23.6008V23.608V23.6152V23.6223V23.6295V23.6367V23.6438V23.651V23.6581V23.6653V23.6725V23.6796V23.6868V23.694V23.7011V23.7083V23.7154V23.7226V23.7298V23.7369V23.7441V23.7513V23.7584V23.7656V23.7727V23.7799V23.7871V23.7942V23.8014V23.8085V23.8157V23.8229V23.83V23.8372V23.8443V23.8515V23.8587V23.8658V23.873V23.8802V23.8873V23.8945V23.9016V23.9088V23.916V23.9231V23.9303V23.9374V23.9446V23.9518V23.9589V23.9661V23.9732V23.9804V23.9876V23.9947V24.0019V24.009V24.0162V24.0234V24.0305V24.0377V24.0448V24.052V24.0592V24.0663V24.0735V24.0806V24.0878V24.095V24.1021V24.1093V24.1164V24.1236V24.1308V24.1379V24.1451V24.1522V24.1594V24.1666V24.1737V24.1809V24.188V24.1952V24.2023V24.2095V24.2167V24.2238V24.231V24.2381V24.2453V24.2525V24.2596V24.2668V24.2739V24.2811V24.2883V24.2954V24.3026V24.3097V24.3169V24.324V24.3312V24.3384V24.3455V24.3527V24.3598V24.367V24.3742V24.3813V24.3885V24.3956V24.4028V24.4099V24.4171V24.4243V24.4314V24.4386V24.4457V24.4529V24.46V24.4672V24.4744V24.4815V24.4887V24.4958V24.503V24.5102V24.5173V24.5245V24.5316V24.5388V24.5459V24.5531V24.5603V24.5674V24.5746V24.5817V24.5889V24.596V24.6032V24.6104V24.6175V24.6247V24.6318V24.639V24.6461V24.6533V24.6605V24.6676V24.6748V24.6819V24.6891V24.6962V24.7034V24.7106V24.7177V24.7249V24.732V24.7392V24.7463V24.7535V24.7607V24.7678V24.775V24.7821V24.7893V24.7964V24.8036V24.8107V24.8179V24.8251V24.8322V24.8394V24.8465V24.8537V24.8608V24.868V24.8752V24.8823V24.8895V24.8966V24.9038V24.9109V24.9181V24.9253V24.9324V24.9396V24.9467V24.9539V24.961V24.9682V24.9753V24.9825V24.9897V24.9968V25.004V25.0111V25.0183V25.0254V25.0326V25.0398V25.0469V25.0541V25.0612V25.0684V25.0755V25.0827V25.0898V25.097V25.1042V25.1113V25.1185V25.1256V25.1328V25.1399V25.1471V25.1542V25.1614V25.1686V25.1757V25.1829V25.19V25.1972V25.2043V25.2115V25.2186V25.2258V25.233V25.2401V25.2473V25.2544V25.2616V25.2687V25.2759V25.2831V25.2902V25.2974V25.3045V25.3117V25.3188V25.326V25.3331V25.3403V25.3475V25.3546V25.3618V25.3689V25.3761V25.3832V25.3904V25.3975V25.4047V25.4119V25.419V25.4262V25.4333V25.4405V25.4476V25.4548V25.4619V25.4691V25.4763V25.4834V25.4906V25.4977V25.5049V25.512V25.5192H28.4773L28.4774 25.5221C28.4914 26.2521 28.2283 26.9603 27.7411 27.5036C27.254 28.0469 26.5791 28.385 25.8527 28.4495L25.8527 28.4495L25.851 28.4497C25.272 28.5076 24.6891 28.4992 24.0961 28.4906C23.8816 28.4875 23.6658 28.4844 23.4484 28.4844H21.5454H21.3954V28.6344V29.9667V30.093L21.5199 30.1145C21.5711 30.1233 21.6229 30.1292 21.6748 30.132L21.6748 30.1322H21.6829C22.1259 30.1322 22.5709 30.1362 23.0168 30.1401C23.9115 30.148 24.8093 30.1559 25.699 30.1322L28.4904 21.3858Z" fill="#7638F9" stroke="#7638F9" stroke-width="0.3"/>
<path d="M12.8178 5.28235V4.25208H14.9736V6.38367H16.0626V7.46057H13.8624H13.8735V5.26903H12.8022L12.8178 5.28235Z" fill="#7638F9"/>
<path d="M16.0624 10.7179V9.60773H14.9956V8.55082H16.0691V7.44061H18.1806V8.52861H17.1204V10.7224L17.1315 10.7113H16.0602L16.0624 10.7179Z" fill="#7638F9"/>
<path d="M17.1138 10.718H18.1984V11.7704H19.263V12.8273C19.1765 12.8273 19.1055 12.8385 19.0412 12.8385H16.0625V11.7727H17.1338V10.7002L17.1138 10.718Z" fill="#7638F9"/>
<path d="M13.8688 7.46057V9.58995H11.7617V8.54635H12.8175V7.46279H13.8887L13.8688 7.46057Z" fill="#7638F9"/>
<path d="M12.8176 7.4628H11.7686V5.28235H12.8176V7.4739V7.4628Z" fill="#7638F9"/>
<path d="M17.1494 4.24323H18.1763V6.36816H17.1494V4.24323Z" fill="#7638F9"/>
<path d="M13.8535 11.7971H15.0202C15.0024 12.1368 14.9825 12.4765 14.9625 12.8318H13.9334L13.8713 11.7971H13.8535Z" fill="#7638F9"/>
<path d="M10.6926 17.1438H9.57031V16.078H10.697V17.1482L10.6926 17.1438Z" fill="#7638F9"/>
<path d="M22.5234 12.8273V11.7904H23.5681V12.8273H22.5234Z" fill="#7638F9"/>
<path d="M11.7441 16.0913H12.8021V17.1438H11.7552V16.078L11.7441 16.0913Z" fill="#7638F9"/>
<path d="M11.7686 18.1896H10.6929V17.1438H11.7619C11.7619 17.4946 11.773 17.8455 11.7797 18.1963L11.7686 18.1896Z" fill="#7638F9"/>
<path d="M5.2387 12.8184L5.29415 13.8909H4.2251V12.8251H5.24536L5.2387 12.8184Z" fill="#7638F9"/>
<path d="M13.8601 11.7904L12.8154 11.7771V10.7068H13.8468V11.7882L13.8601 11.7904Z" fill="#7638F9"/>
<path d="M15.0198 11.7971L14.9688 10.7179H16.0666V10.7068V11.7793L15.0131 11.7971H15.0198Z" fill="#7638F9"/>
<path d="M12.8019 21.4403H11.7705V20.41H12.8019V21.4403Z" fill="#7638F9"/>
<path d="M11.7551 12.8473V11.7838H12.8242C12.8242 12.1257 12.8242 12.4676 12.8242 12.8451H11.7529L11.7551 12.8473Z" fill="#7638F9"/>
<path d="M11.7642 18.1963L12.7999 18.2451V19.2754H11.7686V18.1918L11.7642 18.1963Z" fill="#7638F9"/>
<path d="M11.7661 22.5483H12.8019V23.5808H11.7683L11.7661 22.5483Z" fill="#7638F9"/>
<path d="M21.423 11.7904V12.8185H20.3828V11.7904H21.423Z" fill="#7638F9"/>
<path d="M6.37012 8.51085V6.41034H8.47939V8.51085H6.37012Z" fill="#7638F9"/>
<path d="M6.38525 21.4736H8.49009V23.5852H6.38525V21.4736Z" fill="#7638F9"/>
<path d="M23.5681 8.52863H21.4521V6.41479H23.5659L23.5681 8.52863Z" fill="#7638F9"/>
</g>
<defs>
<clipPath id="clip0_921_48">
<rect width="30" height="30" fill="white"/>
</clipPath>
</defs>
</svg>
