<svg width="29" height="30" viewBox="0 0 29 30" fill="none" xmlns="http://www.w3.org/2000/svg">
<g clip-path="url(#clip0_928_83)">
<path d="M23.5946 20.9426C23.5946 20.9758 23.5946 21.009 23.5946 21.0422C23.5946 23.3326 23.5946 25.6255 23.5946 27.9158C23.5946 28.3269 23.5129 28.7201 23.293 29.0725C22.9173 29.6725 22.355 29.9483 21.6648 29.9968C21.6009 30.0019 21.537 29.9994 21.4731 29.9994C15.0217 29.9994 8.57034 29.9994 2.11894 29.9994C1.65119 29.9994 1.21411 29.9049 0.828151 29.6342C0.283719 29.2512 0.0434524 28.7023 0.00511205 28.0537C0 27.9848 0.00255602 27.9184 0.00255602 27.8494C0 19.3263 0.00255602 10.8032 0 2.28015C0 1.71841 0.127801 1.20263 0.480532 0.755793C0.848599 0.285976 1.33936 0.0459604 1.9298 0.00510671C2.00392 0 2.07549 0.00255335 2.14706 0.00255335C8.57801 0.00255335 15.0064 0.00255335 21.4374 0C21.9383 0 22.3984 0.114901 22.7921 0.43407C23.2445 0.7992 23.4847 1.28434 23.5691 1.85118C23.5921 2.00438 23.5921 2.15503 23.5921 2.30823C23.5921 4.84116 23.5921 7.37664 23.5946 9.90957C23.5946 10.0245 23.5691 10.1215 23.5129 10.2211C22.8457 11.4109 22.1812 12.6034 21.514 13.7932C21.5013 13.8162 21.4885 13.8366 21.468 13.8673C21.4348 13.8136 21.4476 13.7626 21.4476 13.7166C21.4476 9.91723 21.4476 6.11528 21.4476 2.31589C21.4476 2.11928 21.4706 2.14226 21.2687 2.14226C14.9502 2.14226 8.62913 2.14226 2.31064 2.14226C2.14706 2.14482 2.14706 2.14482 2.14706 2.30568C2.14706 10.77 2.14706 19.2344 2.1445 27.6988C2.1445 27.8265 2.17262 27.8596 2.30298 27.8596C8.63169 27.8571 14.9578 27.8571 21.2866 27.8571C21.4501 27.8571 21.4501 27.8571 21.4501 27.6911C21.4501 26.7566 21.4501 25.8195 21.4476 24.885C21.4476 24.7803 21.468 24.6884 21.5192 24.5965C22.1939 23.3964 22.8636 22.1912 23.5359 20.9911C23.5461 20.9733 23.5589 20.9554 23.5691 20.9401C23.5793 20.9401 23.587 20.9401 23.5946 20.9426Z" fill="#7638F9"/>
<path d="M17.772 24.3922C17.772 24.0041 17.772 23.6185 17.772 23.2304C17.772 23.1641 17.7873 23.1079 17.8205 23.0491C20.1721 19.0251 22.5211 14.9959 24.87 10.9667C25.0464 10.6654 25.2253 10.3666 25.394 10.0628C25.44 9.98108 25.4733 9.96576 25.5576 10.0168C26.2094 10.3947 26.8612 10.7701 27.5155 11.1429C27.5973 11.1888 27.5948 11.2246 27.5539 11.2961C26.7513 12.6774 25.9512 14.0613 25.1512 15.4453C23.615 18.1033 22.0789 20.7588 20.5401 23.4143C20.3714 23.7054 20.2028 23.9939 20.0366 24.2875C20.0008 24.3488 19.9574 24.3922 19.896 24.428C19.2289 24.8288 18.5643 25.2323 17.8972 25.6357C17.864 25.6561 17.8257 25.7046 17.7873 25.674C17.7669 25.6587 17.7745 25.6025 17.7745 25.5668C17.772 25.1761 17.772 24.7854 17.772 24.3922Z" fill="#7638F9"/>
<path d="M11.7856 10.7165C9.23727 10.7165 6.68892 10.7165 4.14056 10.719C4.00765 10.719 3.97953 10.6807 3.98209 10.5556C3.98976 10.1343 3.9872 9.713 3.98464 9.29425C3.98464 9.2151 4.00254 9.17169 4.08944 9.18446C4.10989 9.18701 4.13289 9.18446 4.15334 9.18446C9.25005 9.18446 14.3468 9.18446 19.4435 9.18446C19.6122 9.18446 19.6122 9.18446 19.6122 9.35809C19.6122 9.75641 19.6071 10.1573 19.6147 10.5556C19.6173 10.6807 19.5892 10.719 19.4562 10.719C16.8977 10.7139 14.3416 10.7165 11.7856 10.7165Z" fill="#7638F9"/>
<path d="M11.7985 16.2239C14.3469 16.2239 16.8952 16.2239 19.4436 16.2239C19.6097 16.2239 19.6097 16.2239 19.6097 16.3848C19.6097 16.7933 19.6046 17.2019 19.6123 17.6078C19.6148 17.7253 19.5816 17.7559 19.464 17.7559C16.4684 17.7534 13.4727 17.7534 10.4796 17.7534C8.36577 17.7534 6.25194 17.7534 4.13555 17.7559C4.01542 17.7559 3.97708 17.733 3.97964 17.6053C3.9873 17.1942 3.9873 16.7806 3.97964 16.3695C3.97708 16.2546 4.00775 16.2214 4.12533 16.2214C6.68646 16.2265 9.24249 16.2239 11.7985 16.2239Z" fill="#7638F9"/>
<path d="M9.96067 5.51263C11.8956 5.51263 13.833 5.51263 15.768 5.51263C15.9367 5.51263 15.9367 5.51263 15.9367 5.67349C15.9367 6.07692 15.9315 6.48035 15.9392 6.88378C15.9418 7.01145 15.9111 7.04464 15.7782 7.04464C12.1461 7.03953 8.51141 7.04209 4.8793 7.04209C4.62881 7.04209 4.37576 7.03443 4.12527 7.04464C4.00003 7.04975 3.97958 7.00379 3.98213 6.89399C3.98725 6.4829 3.98725 6.06926 3.98213 5.65817C3.97958 5.54327 4.00769 5.50752 4.12783 5.51007C5.85825 5.51518 7.59124 5.51263 9.32167 5.51263C9.53382 5.51263 9.74597 5.51263 9.96067 5.51263Z" fill="#7638F9"/>
<path d="M9.95833 12.5524C11.8984 12.5524 13.8384 12.5549 15.7784 12.5498C15.9087 12.5498 15.942 12.583 15.9394 12.7107C15.9318 13.1141 15.9369 13.5175 15.9369 13.921C15.9369 14.0818 15.9369 14.0818 15.7707 14.0818C12.8645 14.0818 9.95833 14.0818 7.05469 14.0818C6.07573 14.0818 5.09677 14.0793 4.12037 14.0844C4.01302 14.0844 3.98491 14.0537 3.98746 13.949C3.99257 13.5277 3.99513 13.1064 3.98746 12.6877C3.98491 12.5702 4.02325 12.5498 4.1306 12.5498C6.07062 12.5524 8.0132 12.5524 9.95833 12.5524Z" fill="#7638F9"/>
<path d="M9.95818 19.5919C11.8982 19.5919 13.8382 19.5945 15.7782 19.5894C15.9086 19.5894 15.9418 19.6225 15.9367 19.7502C15.9291 20.1536 15.9342 20.5571 15.9342 20.9605C15.9342 21.1214 15.9342 21.1214 15.7655 21.1214C13.0816 21.1214 10.3978 21.1214 7.71144 21.1214C6.51522 21.1214 5.32156 21.1188 4.12534 21.1239C4.00521 21.1239 3.97709 21.0882 3.97965 20.9758C3.98732 20.5647 3.98732 20.1511 3.97965 19.74C3.97709 19.6098 4.01799 19.5894 4.13812 19.5894C6.07814 19.5919 8.01816 19.5919 9.95818 19.5919Z" fill="#7638F9"/>
<path d="M3.9082 24.6807C3.9082 23.8611 4.57277 23.1921 5.3907 23.1921C6.21374 23.1921 6.89364 23.8687 6.88597 24.6858C6.8783 25.5029 6.20607 26.1718 5.39325 26.1693C4.57533 26.1667 3.9082 25.4978 3.9082 24.6807Z" fill="#7638F9"/>
<path d="M11.599 24.7011C11.599 25.5258 10.9319 26.1897 10.1037 26.1897C9.29348 26.1897 8.62636 25.5105 8.62891 24.6909C8.63147 23.8687 9.29348 23.2125 10.1191 23.215C10.9421 23.215 11.599 23.8738 11.599 24.7011Z" fill="#7638F9"/>
<path d="M26.9019 7.73151C26.9198 7.74172 26.9428 7.75449 26.9632 7.76725C27.6201 8.1426 28.277 8.52049 28.9339 8.89584C29.0055 8.93669 29.0183 8.96988 28.9748 9.04393C28.7269 9.46523 28.4841 9.88909 28.2438 10.3155C28.2055 10.3844 28.1722 10.3895 28.1058 10.3512C27.4438 9.96825 26.7792 9.5878 26.1146 9.20735C26.0584 9.17415 26.0482 9.14862 26.0814 9.08989C26.3319 8.66093 26.5773 8.22686 26.8252 7.79789C26.8406 7.76725 26.8508 7.73151 26.9019 7.73151Z" fill="#7638F9"/>
</g>
<defs>
<clipPath id="clip0_928_83">
<rect width="29" height="30" fill="white"/>
</clipPath>
</defs>
</svg>
