<svg width="32" height="30" viewBox="0 0 32 30" fill="none" xmlns="http://www.w3.org/2000/svg">
<path d="M20.7102 22.9873L10.3575 18.3396C9.22942 19.8333 7.75942 20.6881 5.89403 20.7539C5.119 20.7897 4.34523 20.6594 3.62364 20.3716C2.90204 20.0838 2.24897 19.645 1.70738 19.0841C1.17003 18.5538 0.742561 17.9209 0.449857 17.2221C0.157153 16.5234 0.0050729 15.7728 0.00247526 15.0141C-0.000122392 14.2555 0.146811 13.5039 0.434724 12.8031C0.722636 12.1023 1.14576 11.4664 1.67947 10.9324C2.25251 10.3282 2.95373 9.86294 3.73043 9.5717C4.50714 9.28045 5.33912 9.17075 6.16385 9.25084C7.91061 9.38705 9.28058 10.2302 10.3505 11.6252L20.6915 6.91641C20.4003 5.51354 20.6354 4.05143 21.3514 2.81373C22.0674 1.57603 23.2131 0.65097 24.5664 0.218015C25.9197 -0.21494 27.384 -0.124928 28.6752 0.470592C29.9665 1.06611 30.9927 2.12468 31.5547 3.44095C32.1167 4.75721 32.1744 6.23732 31.7167 7.59415C31.2591 8.95098 30.3186 10.0878 29.0777 10.7841C27.8369 11.4803 26.3841 11.6864 25.0013 11.3623C23.6185 11.0382 22.4042 10.2071 21.594 9.03008L21.38 9.12872L13.2602 12.8253L11.3995 13.6778C11.3437 13.7036 11.3018 13.7224 11.3204 13.8023C11.4995 14.5882 11.4995 15.4048 11.3204 16.1907C11.3191 16.204 11.3191 16.2174 11.3204 16.2306L21.6707 20.8737C22.124 20.2278 22.7048 19.6837 23.3765 19.2755C24.0482 18.8673 24.7962 18.6038 25.5736 18.5017C26.9513 18.3047 28.3519 18.6402 29.4951 19.4411C30.3573 20.026 31.0451 20.8374 31.4845 21.7878C31.9238 22.7381 32.0982 23.7915 31.9887 24.8345C31.8791 25.8774 31.4899 26.8705 30.863 27.7067C30.236 28.5429 29.395 29.1906 28.4306 29.58C27.4661 29.9695 26.4147 30.0859 25.3895 29.9168C24.3644 29.7476 23.4044 29.2994 22.6129 28.6202C21.8213 27.9411 21.2282 27.0568 20.8975 26.0626C20.5667 25.0684 20.5108 24.0019 20.7357 22.9779L20.7102 22.9873ZM2.29119 15.0024C2.28936 15.6864 2.48831 16.3557 2.86289 16.9257C3.23746 17.4957 3.77089 17.9408 4.39583 18.205C5.02077 18.4691 5.7092 18.5403 6.37421 18.4097C7.03922 18.2791 7.65099 17.9525 8.13231 17.4711C8.61362 16.9897 8.94289 16.3751 9.07854 15.7048C9.2142 15.0346 9.15018 14.3389 8.89453 13.7054C8.63889 13.0719 8.20309 12.5291 7.64216 12.1455C7.08124 11.7619 6.4203 11.5547 5.74284 11.55C5.29164 11.5448 4.84388 11.6299 4.42548 11.8005C4.00708 11.9712 3.62635 12.2239 3.30534 12.5441C2.98433 12.8643 2.7294 13.2456 2.55532 13.666C2.38124 14.0863 2.29146 14.5374 2.29119 14.993V15.0024ZM26.29 2.32036C25.6118 2.31897 24.9483 2.52075 24.3836 2.90017C23.819 3.2796 23.3785 3.81962 23.1178 4.4519C22.8572 5.08419 22.7882 5.78032 22.9195 6.45223C23.0508 7.12414 23.3766 7.74162 23.8555 8.22655C24.3345 8.71148 24.9451 9.04206 25.6102 9.17647C26.2753 9.31087 26.9649 9.24307 27.5918 8.98163C28.2187 8.72019 28.7547 8.27686 29.132 7.70774C29.5094 7.13863 29.711 6.46929 29.7115 5.78443C29.7155 5.32874 29.6298 4.87679 29.4595 4.45477C29.2892 4.03275 29.0377 3.64907 28.7194 3.32596C28.4012 3.00286 28.0225 2.74677 27.6055 2.57253C27.1885 2.3983 26.7414 2.30939 26.29 2.31096V2.32036ZM26.29 27.7008C26.9682 27.7022 27.6315 27.5005 28.1961 27.1212C28.7608 26.7418 29.2013 26.202 29.462 25.5698C29.7227 24.9377 29.7918 24.2416 29.6607 23.5698C29.5296 22.898 29.2041 22.2805 28.7254 21.7955C28.2466 21.3104 27.6362 20.9797 26.9713 20.845C26.3063 20.7103 25.6168 20.7778 24.9899 21.0389C24.3629 21.3 23.8267 21.7429 23.4491 22.3117C23.0715 22.8805 22.8695 23.5496 22.8686 24.2344C22.8674 24.6875 22.9546 25.1365 23.1254 25.5556C23.2962 25.9746 23.547 26.3556 23.8637 26.6767C24.1804 26.9977 24.5567 27.2526 24.971 27.4267C25.3854 27.6009 25.8296 27.6908 26.2784 27.6914L26.29 27.7008Z" fill="#7638F9"/>
</svg>
